PathFileType	4	(X/Y/Z)	s06c0302.trc
DataRate	CameraRate	NumFrames	NumMarkers	Units	OrigDataRate	OrigDataStartFrame	OrigNumFrames
200	200	7	48	mm	200	250	2000
Frame#	Time	racr			lacr			c7			jug			rlel			rdr			llel			ldr			s2			lic			ric			lasi			rasi			rpsi			lpsi			rgt			lgt			rth1			rth2			rth3			rth4			rlfc			rmfc			rsh1			rsh2			rsh3			rsh4			rlmal			rcal			rtoe			rmt5			lth1			lth2			lth4			lth3			llfc			lmfc			llmal			lcal			lmt5			lsh1			lsh2			lsh3			lsh4			ltoe			SBIKE			LBIKE			RBIKE			
		X1	Y1	Z1	X2	Y2	Z2	X3	Y3	Z3	X4	Y4	Z4	X5	Y5	Z5	X6	Y6	Z6	X7	Y7	Z7	X8	Y8	Z8	X9	Y9	Z9	X10	Y10	Z10	X11	Y11	Z11	X12	Y12	Z12	X13	Y13	Z13	X14	Y14	Z14	X15	Y15	Z15	X16	Y16	Z16	X17	Y17	Z17	X18	Y18	Z18	X19	Y19	Z19	X20	Y20	Z20	X21	Y21	Z21	X22	Y22	Z22	X23	Y23	Z23	X24	Y24	Z24	X25	Y25	Z25	X26	Y26	Z26	X27	Y27	Z27	X28	Y28	Z28	X29	Y29	Z29	X30	Y30	Z30	X31	Y31	Z31	X32	Y32	Z32	X33	Y33	Z33	X34	Y34	Z34	X35	Y35	Z35	X36	Y36	Z36	X37	Y37	Z37	X38	Y38	Z38	X39	Y39	Z39	X40	Y40	Z40	X41	Y41	Z41	X42	Y42	Z42	X43	Y43	Z43	X44	Y44	Z44	X45	Y45	Z45	X46	Y46	Z46	X47	Y47	Z47	X48	Y48	Z48	
250	1.2500	486.639924	1328.682512	-67.338861	499.488574	1324.055486	-388.065885	481.554184	1408.999386	-226.618138	499.172258	1254.910757	-221.307102	516.265728	1076.191145	42.419618	711.237768	930.104860	-39.711481	517.137401	1062.398727	-475.458666	712.441373	921.484436	-411.777292	-29.843721	1164.632047	-243.094296	152.723285	1088.952618	-388.923530	120.401313	1126.854733	-61.694261	154.180281	1026.512785	-355.942556	125.527552	1063.849424	-83.078278	7.596021	1198.449166	-212.841418	12.392699	1191.727890	-272.450128	80.461353	1085.914775	-27.002808	95.763521	1014.395473	-419.449059	180.782163	1004.858322	-28.204582	264.907182	971.425610	-36.510335	319.269655	903.494369	-40.490782	281.854177	998.869681	-56.855700	377.933197	816.762107	-62.445487	368.704106	789.705051	-172.002768	343.121560	698.036421	-33.522385	332.856916	612.225577	-51.221069	285.148374	540.014690	-49.744622	353.449905	608.421244	-85.735919	246.404780	460.585486	-52.565382	183.948558	424.109121	-100.009797	460.890661	425.100455	-101.636685	365.924466	399.248027	-30.116131	121.927352	891.848335	-428.973650	175.733541	824.411652	-417.444817	208.171256	839.546669	-406.832752	188.293593	736.480893	-405.993471	199.110750	626.658987	-382.115629	186.417767	613.667849	-269.236231	-38.862542	338.080192	-381.511334	-118.826207	322.214415	-335.018929	69.301072	259.165860	-401.594022	137.444671	539.689364	-407.168305	98.529950	464.708676	-385.578364	27.811216	410.804461	-389.500182	115.283893	455.693386	-351.145516	154.020151	255.464476	-341.290630	-202.378357	864.759135	-216.558761	-48.287479	79.404693	-415.532329	-49.350930	79.464997	-18.449357	
251	1.2550	488.297833	1328.686342	-67.765029	501.402087	1324.034724	-387.181626	483.320174	1408.886769	-226.385548	500.545955	1254.824237	-220.873733	516.542198	1076.492721	42.557314	710.737081	930.519156	-39.742465	517.313682	1062.767909	-475.945074	712.013170	921.555464	-411.976366	-29.165682	1166.869860	-243.834021	152.803768	1090.620901	-389.371332	120.888106	1128.037920	-62.212596	153.990144	1028.074827	-356.418061	125.755320	1065.053110	-83.717178	8.304778	1200.452739	-213.364520	13.103386	1193.797966	-272.903967	80.912681	1087.211264	-27.554970	95.906101	1016.265235	-419.992297	180.639018	1004.572518	-28.561228	264.330638	970.102593	-36.913007	317.849986	901.777454	-40.861254	281.648963	997.382013	-57.130621	375.597511	813.721021	-62.936839	365.599994	786.606659	-172.086764	341.332071	694.817569	-33.879312	331.308516	609.014456	-51.532149	283.748959	536.535347	-49.945377	351.722922	605.150469	-86.085093	245.467212	457.603172	-53.054294	183.287920	420.007360	-100.277513	460.323278	425.202719	-101.460355	365.550417	398.006954	-30.009946	121.942661	893.768381	-429.230637	175.826272	826.403741	-417.532187	208.266178	841.585457	-407.003268	188.460412	738.533374	-405.796972	199.726144	629.192070	-381.929980	187.036145	616.439830	-268.762864	-38.029963	340.014618	-380.945321	-118.068065	325.237200	-334.945297	69.342476	259.945951	-401.441354	138.673508	541.647320	-407.053701	99.563250	467.022875	-384.897469	29.017690	412.947797	-388.896574	116.198022	458.168600	-350.407362	154.049022	255.406599	-341.181546	-202.363429	864.763059	-216.491246	-48.301557	79.474760	-415.542121	-49.385738	79.480595	-18.439275	
252	1.2600	489.935022	1328.653062	-68.071631	503.401964	1323.964755	-386.238675	485.234974	1408.818914	-226.048993	502.029852	1254.780967	-220.532360	516.932429	1076.765148	42.458270	710.574608	930.330034	-39.997088	517.366233	1063.311819	-476.606475	711.754044	921.614414	-412.300323	-28.466931	1169.338307	-244.114906	152.964197	1092.481838	-389.744585	121.607033	1129.543771	-62.715946	153.773183	1029.825253	-356.830931	126.598213	1066.678625	-84.539951	9.092433	1202.646679	-213.798191	13.862167	1196.158142	-273.256061	81.443398	1088.292995	-28.182628	96.060604	1018.555758	-420.549071	180.880665	1004.289880	-28.792922	263.811219	968.648508	-37.204488	316.415620	899.601609	-41.369998	281.441948	995.706068	-57.373886	373.098888	810.322315	-63.232279	362.354771	783.204379	-172.116423	339.518006	691.361474	-34.230163	329.821745	605.500782	-51.885263	282.575876	532.855366	-50.291109	350.064388	601.845664	-86.652845	244.603138	454.508154	-53.570372	182.700667	415.809104	-100.790348	459.730004	425.216367	-101.109736	365.150803	396.812249	-29.956408	121.847189	896.071450	-429.437061	175.895564	828.912429	-417.703610	208.279602	843.993254	-406.887562	188.725824	741.003195	-405.841533	200.656914	632.004162	-381.664905	187.747098	619.513038	-268.383416	-37.124813	342.729636	-380.847434	-117.062522	328.339476	-334.959123	69.523419	260.957916	-401.204956	140.038565	543.968582	-406.643633	100.698429	469.545300	-384.275823	30.153443	415.489738	-388.342329	117.145611	460.910539	-349.597299	154.143595	255.176086	-341.051241	-202.343900	864.758085	-216.386530	-48.315883	79.447649	-415.482711	-49.368224	79.464019	-18.432322	
253	1.2650	491.466229	1328.694474	-68.319957	505.629422	1323.886001	-385.163853	487.286897	1408.802300	-225.667431	503.609083	1254.735740	-220.191422	517.213097	1076.977034	42.264085	710.297132	931.678096	-39.586438	517.466966	1063.876554	-477.356447	711.645252	921.600686	-412.646820	-27.792566	1171.763095	-244.188315	153.257203	1094.498411	-390.154087	122.520777	1130.859812	-63.158426	153.598425	1031.790624	-357.449154	127.170585	1068.036619	-85.177764	9.979409	1204.950089	-213.815705	14.675207	1198.503045	-273.310604	82.190723	1089.405656	-28.303227	96.236342	1021.264344	-421.168307	180.827937	1003.964317	-28.984462	263.130204	967.057148	-37.490629	314.712326	897.129902	-41.809309	281.203264	993.946554	-57.528694	370.383902	806.900272	-63.595765	359.051240	779.485360	-171.927487	337.543847	688.068639	-34.719507	328.381147	602.217598	-52.499478	281.637971	529.218984	-50.862307	348.172972	598.873502	-87.477774	243.598311	451.338782	-54.126571	181.947001	411.894238	-100.940790	459.008038	425.211003	-100.777090	364.631236	395.440002	-29.892928	121.690320	898.757860	-429.555875	176.043261	831.780341	-417.955610	208.341333	846.988748	-407.125778	189.187080	743.990071	-406.086917	201.651288	634.999194	-381.493884	188.729427	623.138359	-267.819641	-35.689274	345.450692	-380.579573	-115.743618	331.863589	-334.815179	69.858431	261.697030	-401.003663	141.455287	546.853735	-406.175008	101.970791	472.419074	-383.818758	31.313876	418.650841	-388.473809	118.303641	463.770479	-349.215857	154.433067	254.619640	-340.900590	-202.230963	864.773745	-216.281357	-48.312127	79.473574	-415.511134	-49.368034	79.463327	-18.424630	
254	1.2700	493.121100	1328.647888	-68.770157	507.844121	1323.774219	-384.047929	489.429826	1408.784803	-225.228815	505.297872	1254.656079	-219.851428	517.263758	1077.033419	42.023726	710.179488	932.256686	-39.600754	517.613427	1064.242520	-477.871021	711.616073	921.478113	-413.001148	-26.889935	1174.293740	-244.415142	153.609259	1096.705624	-390.531109	123.644140	1132.030785	-63.677536	153.364910	1033.922841	-358.010023	127.980688	1069.307932	-86.043962	10.885898	1207.404438	-213.683750	15.508422	1201.105019	-273.198509	82.973334	1090.288417	-28.715021	96.383548	1024.329626	-421.828810	180.695215	1003.353189	-28.767499	262.496970	965.364430	-37.852485	312.942311	894.746629	-42.344894	281.000898	992.125297	-57.585361	367.844203	803.553358	-63.702403	355.847649	776.017499	-171.750633	335.364486	684.937523	-35.157414	326.860709	599.002755	-53.031798	280.720073	525.618936	-51.509419	346.647664	595.972106	-88.066759	242.578076	448.310361	-54.674817	181.107882	408.322485	-100.953440	458.243189	425.452583	-100.196577	364.053233	394.178870	-29.781616	121.507956	901.730838	-429.655901	176.238847	834.995241	-418.249153	208.494684	850.356765	-407.475094	189.857488	747.202455	-406.501448	202.865438	638.101855	-381.368239	189.900082	626.812113	-267.324449	-33.553231	348.105386	-380.310376	-114.198682	335.485210	-334.721677	70.272912	262.400486	-400.758851	142.903899	549.987022	-405.883297	103.399609	475.510456	-383.644149	32.741586	421.831401	-388.424205	119.698457	466.815376	-349.020979	154.765855	253.957997	-340.708326	-202.109346	864.820993	-216.220884	-48.321738	79.481731	-415.483260	-49.376354	79.460675	-18.424277	
255	1.2750	494.582533	1328.818995	-68.618090	510.190055	1323.663416	-382.788171	491.658946	1408.745699	-224.814175	507.051225	1254.526499	-219.498793	517.198255	1076.762029	41.674105	709.996730	932.663837	-39.536360	518.039510	1064.689190	-478.695025	711.639073	921.306767	-413.314105	-25.991549	1176.969138	-244.261266	153.986695	1099.065794	-390.931680	124.946800	1133.465895	-64.055281	153.130072	1036.169376	-358.469181	129.267710	1070.884867	-86.818508	12.054620	1209.794639	-213.533868	16.552497	1203.666432	-273.173431	84.184519	1091.311478	-29.134720	96.585859	1027.583513	-422.488688	180.704971	1003.237377	-28.758318	261.847733	963.860606	-38.023805	310.989630	892.302843	-42.871259	280.874281	990.378513	-57.605208	365.548046	800.461032	-63.700468	352.915647	772.715669	-171.554329	333.095959	682.059658	-35.330526	325.321298	596.088996	-53.420719	279.737740	522.355551	-52.055520	345.034543	593.286476	-88.493588	241.590546	445.277280	-55.269968	181.111697	403.847816	-101.985050	457.541961	425.538611	-99.622399	363.474318	392.795145	-29.640705	121.401215	904.843397	-429.870284	176.589888	838.471434	-418.716129	208.774689	854.001277	-407.895754	190.718099	750.765570	-407.087197	204.256444	641.406529	-381.363627	191.068584	630.788177	-266.846845	-30.961878	350.602914	-380.029264	-112.491885	339.296876	-334.594032	70.689177	263.164171	-400.551271	144.472527	553.348882	-405.711506	105.108531	478.755618	-383.618754	34.364874	425.191066	-388.449623	121.441501	469.905907	-349.055307	155.113037	253.150736	-340.655439	-202.011410	864.819973	-216.159427	-48.308820	79.488850	-415.527302	-49.332990	79.453490	-18.440591	
256	1.2800	496.018156	1328.845173	-68.337610	512.586641	1323.519613	-381.556364	493.905272	1408.636102	-224.357408	508.815935	1254.291388	-219.235948	516.823190	1076.525074	41.505034	709.679942	932.959712	-39.251540	518.701312	1065.078616	-479.542227	711.679624	921.179451	-413.618912	-24.980898	1179.777666	-243.813160	154.438603	1101.573224	-391.411806	126.393693	1134.555424	-64.540699	152.923031	1038.538994	-358.948768	130.025328	1072.014177	-87.532645	13.089368	1212.330341	-213.001875	17.371477	1206.254836	-272.560877	85.438879	1092.498170	-29.333547	96.797410	1031.093549	-423.203888	180.789884	1003.243765	-28.927752	261.344803	962.648517	-38.112752	309.067149	890.082216	-43.366192	280.793049	988.775868	-57.609539	363.102245	797.789020	-63.923277	350.286443	769.983293	-171.537810	330.671040	679.458601	-35.269000	323.776655	593.387473	-53.658565	278.705592	519.368638	-52.441826	343.530831	590.838557	-88.707207	240.944290	442.194676	-55.918282	180.674123	399.997617	-102.560238	456.917250	425.428914	-99.387798	363.088737	391.509483	-29.654370	121.450008	908.290318	-430.215050	177.088824	842.157482	-419.259167	209.154240	857.876480	-408.384232	191.734717	754.519273	-407.717198	205.759518	644.883750	-381.364855	192.283898	634.785595	-266.423975	-28.495578	353.167639	-379.772294	-110.750777	343.117849	-334.487405	71.138930	264.255261	-400.814943	146.231733	556.698884	-405.625195	106.924672	482.107310	-383.537321	36.257092	428.488436	-388.374176	123.399109	473.161024	-349.095110	155.428517	252.404497	-340.629335	-201.913272	864.855476	-216.119431	-48.311128	79.475378	-415.508463	-49.291214	79.497722	-18.412470	
